<svg width="18" height="18" viewBox="0 0 18 18" fill="none" xmlns="http://www.w3.org/2000/svg">
<g id="Icon / Outlined / move_02">
<path id="Vector" fill-rule="evenodd" clip-rule="evenodd" d="M3 11.0625C3 10.9133 3.05926 10.7702 3.16475 10.6648C3.27024 10.5593 3.41332 10.5 3.5625 10.5H14.8125C14.9617 10.5 15.1048 10.5593 15.2102 10.6648C15.3157 10.7702 15.375 10.9133 15.375 11.0625C15.375 11.2117 15.3157 11.3548 15.2102 11.4602C15.1048 11.5657 14.9617 11.625 14.8125 11.625H3.5625C3.41332 11.625 3.27024 11.5657 3.16475 11.4602C3.05926 11.3548 3 11.2117 3 11.0625ZM3 6.5625C3 6.41332 3.05926 6.27024 3.16475 6.16475C3.27024 6.05926 3.41332 6 3.5625 6H14.8125C14.9617 6 15.1048 6.05926 15.2102 6.16475C15.3157 6.27024 15.375 6.41332 15.375 6.5625C15.375 6.71168 15.3157 6.85476 15.2102 6.96025C15.1048 7.06574 14.9617 7.125 14.8125 7.125H3.5625C3.41332 7.125 3.27024 7.06574 3.16475 6.96025C3.05926 6.85476 3 6.71168 3 6.5625Z" fill="#B1B9CB"/>
</g>
</svg>
