<svg width="16" height="16" viewBox="0 0 16 16" fill="none" xmlns="http://www.w3.org/2000/svg">
<g clip-path="url(#clip0_7_31922)">
<path d="M15.4099 10.2399C15.1699 10.2399 14.9599 10.0899 14.8699 9.86992C14.7799 9.64992 14.8299 9.39992 14.9899 9.22992C15.0999 9.11992 15.1599 8.96992 15.1599 8.80992C15.1599 8.64992 15.0999 8.49992 14.9899 8.38992L14.2799 7.67992C14.1699 7.56992 14.0199 7.49992 13.8599 7.49992C13.6999 7.49992 13.5499 7.55992 13.4399 7.67992C13.3299 7.78992 13.1799 7.84992 13.0299 7.84992C12.8699 7.84992 12.7199 7.78992 12.6099 7.67992C12.4999 7.56992 12.4299 7.41992 12.4299 7.25992C12.4299 7.09992 12.3699 6.94992 12.2599 6.83992C12.1499 6.72992 11.9999 6.66992 11.8399 6.66992H10.8299C10.6699 6.66992 10.5199 6.72992 10.4099 6.83992C10.2999 6.94992 10.2399 7.09992 10.2399 7.25992C10.2399 7.41992 10.1799 7.56992 10.0599 7.67992C9.94992 7.78992 9.79992 7.84992 9.63992 7.84992C9.48992 7.84992 9.33992 7.78992 9.22992 7.67992C9.11992 7.56992 8.96992 7.49992 8.80992 7.49992C8.64992 7.49992 8.49992 7.55992 8.38992 7.67992L7.67992 8.38992C7.56992 8.49992 7.50992 8.64992 7.50992 8.80992C7.50992 8.96992 7.56992 9.11992 7.67992 9.22992C7.83992 9.39992 7.88992 9.64992 7.79992 9.86992C7.70992 10.0899 7.49992 10.2299 7.25992 10.2399C7.09992 10.2399 6.94992 10.2999 6.83992 10.4099C6.72992 10.5199 6.66992 10.6699 6.66992 10.8299V11.8399C6.66992 11.9999 6.72992 12.1499 6.83992 12.2599C6.94992 12.3699 7.09992 12.4299 7.25992 12.4299C7.49992 12.4299 7.70992 12.5799 7.79992 12.7999C7.88992 13.0199 7.83992 13.2699 7.67992 13.4399C7.56992 13.5499 7.50992 13.6999 7.50992 13.8599C7.50992 14.0199 7.56992 14.1699 7.67992 14.2799L8.38992 14.9899C8.49992 15.0999 8.64992 15.1699 8.80992 15.1699C8.96992 15.1699 9.11992 15.1099 9.22992 14.9899C9.33992 14.8799 9.48992 14.8199 9.63992 14.8199C9.79992 14.8199 9.94992 14.8799 10.0599 14.9899C10.1699 15.0999 10.2399 15.2499 10.2399 15.4099C10.2399 15.5699 10.2999 15.7199 10.4099 15.8299C10.5199 15.9399 10.6699 15.9999 10.8299 15.9999H11.8399C11.9999 15.9999 12.1499 15.9399 12.2599 15.8299C12.3699 15.7199 12.4299 15.5699 12.4299 15.4099C12.4299 15.2499 12.4899 15.0999 12.6099 14.9899C12.7199 14.8799 12.8699 14.8199 13.0299 14.8199C13.1799 14.8199 13.3299 14.8799 13.4399 14.9899C13.5499 15.0999 13.6999 15.1699 13.8599 15.1699C14.0199 15.1699 14.1699 15.1099 14.2799 14.9899L14.9899 14.2799C15.0999 14.1699 15.1599 14.0199 15.1599 13.8599C15.1599 13.6999 15.0999 13.5499 14.9899 13.4399C14.8299 13.2699 14.7799 13.0199 14.8699 12.7999C14.9599 12.5799 15.1699 12.4399 15.4099 12.4299C15.5699 12.4299 15.7199 12.3699 15.8299 12.2599C15.9399 12.1499 15.9999 11.9999 15.9999 11.8399V10.8299C15.9999 10.6699 15.9399 10.5199 15.8299 10.4099C15.7199 10.2999 15.5699 10.2399 15.4099 10.2399Z" fill="#2E3F57"/>
<path d="M6.5 13.8602C6.5 13.6702 6.54 13.4702 6.6 13.3002C6.42 13.2202 6.26 13.1102 6.12 12.9702C5.82 12.6702 5.65 12.2502 5.66 11.8402V10.8402C5.66 10.4202 5.82 10.0002 6.12 9.70023C6.26 9.56023 6.42 9.45023 6.6 9.37023C6.53 9.19023 6.5 9.00023 6.5 8.81023C6.5 8.38023 6.67 7.99023 6.97 7.69023L7.67 6.99023C7.97 6.69023 8.38 6.51023 8.8 6.51023C9 6.51023 9.19 6.55023 9.37 6.61023C9.45 6.43023 9.56 6.27023 9.7 6.13023C10 5.83023 10.4 5.67023 10.83 5.67023H11.83H11.84C12.26 5.67023 12.66 5.83023 12.96 6.13023C13.1 6.27023 13.21 6.43023 13.29 6.61023C13.47 6.54023 13.66 6.50023 13.86 6.50023C13.91 6.50023 13.95 6.51023 14 6.51023V4.99023C14 3.33023 12.66 1.99023 11 1.99023H5C3.34 2.00023 2 3.34023 2 5.00023V11.0002C2 12.6602 3.34 14.0002 5 14.0002H6.52C6.52 14.0002 6.51 13.9102 6.51 13.8602H6.5Z" fill="#2E3F57"/>
<path d="M11.3301 12.3301C11.8824 12.3301 12.3301 11.8824 12.3301 11.3301C12.3301 10.7778 11.8824 10.3301 11.3301 10.3301C10.7778 10.3301 10.3301 10.7778 10.3301 11.3301C10.3301 11.8824 10.7778 12.3301 11.3301 12.3301Z" fill="white"/>
</g>
<defs>
<clipPath id="clip0_7_31922">
<rect width="14" height="14" fill="white" transform="translate(2 2)"/>
</clipPath>
</defs>
</svg>
