<svg width="64" height="64" viewBox="0 0 64 64" fill="none" xmlns="http://www.w3.org/2000/svg">
<rect width="64" height="64" rx="32" fill="#B1B9CB"/>
<path d="M21.334 38.6667L21.334 38.4C21.334 36.1598 21.334 35.0397 21.77 34.184C22.1535 33.4314 22.7654 32.8195 23.518 32.436C24.3737 32 25.4938 32 27.734 32L36.2673 32C38.5075 32 39.6276 32 40.4833 32.436C41.2359 32.8195 41.8479 33.4314 42.2313 34.184C42.6673 35.0397 42.6673 36.1598 42.6673 38.4L42.6673 38.6667M21.334 38.6667C19.8612 38.6667 18.6673 39.8606 18.6673 41.3333C18.6673 42.8061 19.8612 44 21.334 44C22.8067 44 24.0007 42.8061 24.0007 41.3333C24.0007 39.8606 22.8067 38.6667 21.334 38.6667ZM42.6673 38.6667C41.1946 38.6667 40.0007 39.8606 40.0007 41.3333C40.0007 42.8061 41.1946 44 42.6673 44C44.1401 44 45.334 42.8061 45.334 41.3333C45.334 39.8606 44.1401 38.6667 42.6673 38.6667ZM32.0007 25.3333L32.0007 38.6667M32.0007 25.3333C30.5279 25.3333 29.334 24.1394 29.334 22.6667C29.334 21.1939 30.5279 20 32.0007 20C33.4734 20 34.6673 21.1939 34.6673 22.6667C34.6673 24.1394 33.4734 25.3333 32.0007 25.3333ZM32.0007 38.6667C30.5279 38.6667 29.334 39.8606 29.334 41.3333C29.334 42.8061 30.5279 44 32.0007 44C33.4734 44 34.6673 42.8061 34.6673 41.3333C34.6673 39.8606 33.4734 38.6667 32.0007 38.6667Z" stroke="white" stroke-width="1.5" stroke-linecap="round" stroke-linejoin="round"/>
</svg>
