<svg width="64" height="64" viewBox="0 0 64 64" fill="none" xmlns="http://www.w3.org/2000/svg">
<rect width="64" height="64" rx="32" fill="#B1B9CB"/>
<path d="M36 44V36.8C36 36.0533 36 35.6799 35.8547 35.3947C35.7268 35.1438 35.5229 34.9398 35.272 34.812C34.9868 34.6667 34.6134 34.6667 33.8667 34.6667H30.1333C29.3866 34.6667 29.0132 34.6667 28.728 34.812C28.4771 34.9398 28.2732 35.1438 28.1453 35.3947C28 35.6799 28 36.0533 28 36.8V44M41.3333 44V24.2667C41.3333 22.7732 41.3333 22.0265 41.0427 21.456C40.787 20.9543 40.3791 20.5463 39.8773 20.2906C39.3069 20 38.5601 20 37.0667 20H26.9333C25.4399 20 24.6931 20 24.1227 20.2906C23.6209 20.5463 23.213 20.9543 22.9573 21.456C22.6667 22.0265 22.6667 22.7732 22.6667 24.2667V44M44 44H20M28.6667 26.6667H28.68M35.3333 26.6667H35.3467M29.3333 26.6667C29.3333 27.0349 29.0349 27.3333 28.6667 27.3333C28.2985 27.3333 28 27.0349 28 26.6667C28 26.2985 28.2985 26 28.6667 26C29.0349 26 29.3333 26.2985 29.3333 26.6667ZM36 26.6667C36 27.0349 35.7015 27.3333 35.3333 27.3333C34.9651 27.3333 34.6667 27.0349 34.6667 26.6667C34.6667 26.2985 34.9651 26 35.3333 26C35.7015 26 36 26.2985 36 26.6667Z" stroke="white" stroke-width="1.5" stroke-linecap="round" stroke-linejoin="round"/>
</svg>
