<svg width="16" height="16" viewBox="0 0 16 16" fill="none" xmlns="http://www.w3.org/2000/svg">
<g clip-path="url(#clip0_1531_1619)">
<path d="M14.75 6.61843C14.59 6.44843 14.36 6.35843 14.12 6.35843C13.76 6.35843 13.44 6.12843 13.3 5.80843C13.17 5.47843 13.24 5.09843 13.48 4.83843C13.65 4.66843 13.74 4.44843 13.74 4.20843C13.74 3.96843 13.65 3.75843 13.48 3.58843L12.42 2.51843C12.09 2.17843 11.49 2.17843 11.16 2.51843C10.99 2.67843 10.77 2.76843 10.54 2.76843C10.3 2.75843 10.08 2.67843 9.91 2.51843C9.74 2.34843 9.64 2.11843 9.64 1.88843C9.65 1.64843 9.55 1.41843 9.39 1.25843C9.22 1.08843 8.99 0.978434 8.76 0.998434H7.24C7.03 0.998434 6.78 1.08843 6.61 1.25843C6.45 1.41843 6.35 1.64843 6.36 1.88843C6.36 2.11843 6.26 2.34843 6.09 2.50843C5.93 2.67843 5.71 2.77843 5.46 2.76843C5.23 2.76843 5.01 2.67843 4.84 2.51843C4.51 2.17843 3.91 2.17843 3.59 2.51843L2.52 3.58843C2.35 3.74843 2.26 3.97843 2.26 4.20843C2.26 4.43843 2.35 4.67843 2.52 4.83843C2.76 5.09843 2.84 5.47843 2.7 5.80843C2.56 6.12843 2.24 6.34843 1.88 6.35843C1.64 6.35843 1.42 6.44843 1.26 6.60843C1.09 6.77843 1 6.99843 1 7.23843V8.75843C1 8.99844 1.09 9.21843 1.26 9.38843C1.42 9.55843 1.66 9.68843 1.88 9.63843C2.24 9.64843 2.56 9.86843 2.7 10.1984C2.84 10.5184 2.76 10.8984 2.52 11.1584C2.35 11.3284 2.26 11.5484 2.26 11.7884C2.26 12.0284 2.35 12.2484 2.52 12.4084L3.58 13.4784C3.91 13.8184 4.52 13.8184 4.84 13.4784C5.01 13.3184 5.23 13.2284 5.46 13.2284C5.7 13.2584 5.93 13.3184 6.09 13.4884C6.26 13.6484 6.36 13.8784 6.36 14.1084C6.35 14.3484 6.45 14.5784 6.61 14.7384C6.77 14.9084 7 14.9984 7.23 14.9984H8.76C8.97 14.9984 9.22 14.9084 9.38 14.7484C9.55 14.5784 9.65 14.3484 9.64 14.1084C9.64 13.8784 9.74 13.6484 9.91 13.4884C10.07 13.3184 10.29 13.2284 10.53 13.2284C10.76 13.2284 10.99 13.3184 11.16 13.4784C11.48 13.8184 12.09 13.8184 12.41 13.4784L13.48 12.4084C13.65 12.2484 13.74 12.0184 13.74 11.7884C13.74 11.5584 13.65 11.3284 13.48 11.1584C13.24 10.8984 13.17 10.5184 13.3 10.1984C13.44 9.86843 13.76 9.64843 14.11 9.63843C14.35 9.63843 14.58 9.54843 14.74 9.38843C14.91 9.21843 15 8.98843 15 8.75843V7.23843C15 7.00843 14.91 6.77843 14.75 6.61843ZM13.7 8.38843C12.99 8.52843 12.39 9.00843 12.1 9.69843C11.82 10.3784 11.9 11.1384 12.3 11.7584L11.76 12.2984C11.4 12.0584 10.99 11.9284 10.55 11.9284C9.99 11.9284 9.41 12.1484 8.99 12.5584C8.68 12.8684 8.47 13.2684 8.39 13.6984H7.62C7.53 13.2684 7.32 12.8684 7.01 12.5584C6.6 12.1584 6.04 11.9284 5.47 11.9284H5.45C5.02 11.9284 4.61 12.0584 4.25 12.2984L3.7 11.7584C4.1 11.1484 4.18 10.3784 3.9 9.69843C3.62 9.01843 3.02 8.53843 2.3 8.38843V7.60843C3.01 7.46843 3.61 6.98843 3.9 6.30843C4.18 5.62843 4.1 4.85843 3.7 4.24843L4.24 3.69843C4.6 3.93843 5.01 4.06843 5.45 4.06843C6.01 4.08843 6.59 3.84843 7.01 3.43843C7.32 3.12843 7.53 2.72843 7.61 2.29843H8.38C8.47 2.72843 8.68 3.12843 8.99 3.43843C9.41 3.84843 9.97 4.06843 10.55 4.06843C10.98 4.06843 11.39 3.93843 11.76 3.69843L12.3 4.23843C11.9 4.84843 11.82 5.61843 12.1 6.29843C12.39 6.98843 12.99 7.46843 13.7 7.60843V8.38843Z" fill="#2E3F57"/>
<path d="M7.99891 6.39062C7.10891 6.39062 6.37891 7.11063 6.37891 8.01063C6.37891 8.91063 7.09891 9.63063 7.99891 9.63063C8.89891 9.63063 9.61891 8.91063 9.61891 8.01063C9.61891 7.11063 8.89891 6.39062 7.99891 6.39062Z" fill="#2E3F57"/>
</g>
<defs>
<clipPath id="clip0_1531_1619">
<rect width="14" height="14" fill="white" transform="translate(1 1)"/>
</clipPath>
</defs>
</svg>
