<svg width="16" height="16" viewBox="0 0 16 16" fill="none" xmlns="http://www.w3.org/2000/svg">
<g id="Icon / Filled / Warning" clip-path="url(#clip0_412_26283)">
<circle id="Ellipse 2" cx="8.0013" cy="8.00033" r="7.33333" fill="#2E3F57"/>
<g id="Shape">
<path d="M7.87707 4.03935C7.99326 3.98818 8.11885 3.96181 8.24581 3.96191C8.37269 3.96195 8.49816 3.98842 8.61424 4.03965C8.73031 4.09088 8.83443 4.16574 8.91996 4.25945C9.00549 4.35317 9.07055 4.46368 9.11098 4.58394C9.15142 4.7042 9.16635 4.83156 9.15481 4.95791L8.79081 8.96391C8.77666 9.0986 8.71314 9.22327 8.6125 9.31389C8.51186 9.40451 8.38124 9.45465 8.24581 9.45465C8.11039 9.45465 7.97976 9.40451 7.87912 9.31389C7.77848 9.22327 7.71496 9.0986 7.70081 8.96391L7.33581 4.95791C7.32427 4.83148 7.33922 4.70403 7.37972 4.5837C7.42022 4.46337 7.48536 4.35281 7.571 4.25908C7.65664 4.16535 7.76088 4.09051 7.87707 4.03935Z" fill="white"/>
<path d="M9.11817 11.1644C9.11817 11.6462 8.72762 12.0367 8.24585 12.0367C7.76408 12.0367 7.37353 11.6462 7.37353 11.1644C7.37353 10.6826 7.76408 10.2921 8.24585 10.2921C8.72762 10.2921 9.11817 10.6826 9.11817 11.1644Z" fill="white"/>
</g>
</g>
<defs>
<clipPath id="clip0_412_26283">
<rect width="16" height="16" fill="white"/>
</clipPath>
</defs>
</svg>
