<svg width="20" height="20" viewBox="0 0 20 20" fill="none" xmlns="http://www.w3.org/2000/svg">
<g id="Frame 204">
<g id="Home">
<path id="Home_2" fill-rule="evenodd" clip-rule="evenodd" d="M7.90532 16.14V13.9933C7.9053 13.4472 8.37388 13.0036 8.95443 12.9999H11.081C11.6643 12.9999 12.1372 13.4447 12.1372 13.9933V16.1466C12.1371 16.6102 12.5305 16.9891 13.0233 17H14.441C15.8543 17 17 15.9225 17 14.5933V8.48648C16.9925 7.96358 16.7314 7.47254 16.2911 7.15312L11.4425 3.47971C10.5931 2.8401 9.38562 2.8401 8.5362 3.47971L3.70886 7.15979C3.26693 7.47792 3.00544 7.96977 3 8.49315V14.5933C3 15.9225 4.1457 17 5.55899 17H6.97671C7.48173 17 7.89114 16.615 7.89114 16.14" fill="#FFFFFF"/>
</g>
</g>
</svg>
