<svg width="16" height="16" viewBox="0 0 16 16" fill="none" xmlns="http://www.w3.org/2000/svg">
<path fill-rule="evenodd" clip-rule="evenodd" d="M6.63307 9.9998L8.83794 9.52699C9.14434 9.45815 9.42475 9.3031 9.64618 9.08008L13.9589 4.75997C14.8121 4.00685 14.907 2.70838 14.1723 1.83888C13.8361 1.5088 13.3822 1.32692 12.9115 1.33368C12.2873 1.34843 11.6935 1.60634 11.2562 2.05262L6.94343 6.33386C6.72078 6.55567 6.566 6.83656 6.49728 7.14348L6.02527 9.35211C5.97421 9.50538 6.0015 9.674 6.09829 9.80326C6.19507 9.93253 6.34902 10.006 6.51021 9.9998H6.63307ZM7.96182 7.46789L7.80216 8.215L8.51242 8.06269C8.53837 8.05623 8.56239 8.0427 8.58173 8.02323L8.58461 8.02032L12.9308 3.66673L12.9663 3.63542C13.187 3.44059 13.2287 3.1155 13.0748 2.87271C13.0338 2.84744 12.9867 2.8338 12.9384 2.8335C12.7084 2.84113 12.4896 2.93711 12.3275 3.1025L12.3203 3.10988L8.00209 7.39652C8.00194 7.39667 8.00225 7.39636 8.00209 7.39652C7.98284 7.41586 7.96852 7.4408 7.96182 7.46789Z" fill="#2E3F57"/>
<path fill-rule="evenodd" clip-rule="evenodd" d="M4.33333 3.25C3.73503 3.25 3.25 3.73502 3.25 4.33333V11.6667C3.25 12.265 3.73502 12.75 4.33333 12.75H11.6667C12.265 12.75 12.75 12.265 12.75 11.6667V6.77778C12.75 6.36356 13.0858 6.02778 13.5 6.02778C13.9142 6.02778 14.25 6.36356 14.25 6.77778V11.6667C14.25 13.0934 13.0934 14.25 11.6667 14.25H4.33333C2.9066 14.25 1.75 13.0934 1.75 11.6667V4.33333C1.75 2.9066 2.9066 1.75 4.33333 1.75H9.22222C9.63644 1.75 9.97222 2.08579 9.97222 2.5C9.97222 2.91421 9.63644 3.25 9.22222 3.25H4.33333Z" fill="#2E3F57"/>
</svg>