<svg width="18" height="18" viewBox="0 0 18 18" fill="none" xmlns="http://www.w3.org/2000/svg">
<g id="icon">
<path id="Vector 141" d="M6 4.6068L6 3.35318C6 2.47958 6 2.04278 6.26206 1.77139C6.52412 1.5 6.94591 1.5 7.78947 1.5L10.2105 1.5C11.0541 1.5 11.4759 1.5 11.7379 1.77139C12 2.04278 12 2.47958 12 3.35318V4.6068" stroke="#2E3F57" stroke-width="1.5"/>
<path id="Vector 151" d="M10.5 8.41113V12.1611" stroke="#2E3F57" stroke-width="1.5" stroke-linecap="round"/>
<path id="Vector 152" d="M7.5 8.41113V12.1611" stroke="#2E3F57" stroke-width="1.5" stroke-linecap="round"/>
<path id="Rectangle 976" d="M4.41348 11.6428L3.66024 4.82281L14.3384 4.82282L13.5851 11.6428C13.4543 12.8278 13.3982 13.2829 13.2635 13.6419C12.8898 14.6377 12.0525 15.3876 11.0217 15.6498C10.65 15.7443 10.1916 15.75 8.99931 15.75C7.80706 15.75 7.34858 15.7443 6.97697 15.6498C5.94615 15.3876 5.10884 14.6377 4.73513 13.6419C4.60041 13.2829 4.54437 12.8278 4.41348 11.6428Z" stroke="#2E3F57" stroke-width="1.5"/>
<path id="Vector 155" d="M2.25 4.5918H15.75" stroke="#2E3F57" stroke-width="1.5" stroke-linecap="round"/>
</g>
</svg>
