<svg width="20" height="20" viewBox="0 0 20 20" fill="none" xmlns="http://www.w3.org/2000/svg">
<path fill-rule="evenodd" clip-rule="evenodd" d="M14.4393 15.6188C13.0027 16.7944 11.1664 17.4997 9.16536 17.4997C4.56299 17.4997 0.832031 13.7687 0.832031 9.16634C0.832031 4.56397 4.56299 0.833008 9.16536 0.833008C13.7677 0.833008 17.4987 4.56397 17.4987 9.16634C17.4987 11.1674 16.7934 13.0037 15.6178 14.4403L18.9213 17.7438C19.2468 18.0693 19.2468 18.5969 18.9213 18.9223C18.5959 19.2478 18.0683 19.2478 17.7428 18.9223L14.4393 15.6188ZM15.832 9.16634C15.832 12.8482 12.8473 15.833 9.16536 15.833C5.48347 15.833 2.4987 12.8482 2.4987 9.16634C2.4987 5.48444 5.48347 2.49967 9.16536 2.49967C12.8473 2.49967 15.832 5.48444 15.832 9.16634Z" fill="#2E3F57"/>
</svg>
