<svg width="16" height="16" viewBox="0 0 16 16" fill="none" xmlns="http://www.w3.org/2000/svg">
<g id="Icon / Outlined / Clock">
<path id="Icon (Stroke)" fill-rule="evenodd" clip-rule="evenodd" d="M8 2.5C4.96243 2.5 2.5 4.96243 2.5 8C2.5 11.0376 4.96243 13.5 8 13.5C11.0376 13.5 13.5 11.0376 13.5 8C13.5 4.96243 11.0376 2.5 8 2.5ZM1.5 8C1.5 4.41015 4.41015 1.5 8 1.5C11.5899 1.5 14.5 4.41015 14.5 8C14.5 11.5899 11.5899 14.5 8 14.5C4.41015 14.5 1.5 11.5899 1.5 8ZM8 5.11391C8.27614 5.11391 8.5 5.33777 8.5 5.61391V8.38962L10.4081 9.02566C10.6701 9.11298 10.8117 9.39614 10.7243 9.65811C10.637 9.92009 10.3539 10.0617 10.0919 9.97434L7.84189 9.22434C7.63772 9.15628 7.5 8.96522 7.5 8.75V5.61391C7.5 5.33777 7.72386 5.11391 8 5.11391Z" fill="#64748B"/>
</g>
</svg>
