<svg width="20" height="20" viewBox="0 0 20 20" fill="none" xmlns="http://www.w3.org/2000/svg">
<g id="Icon / Filled / Text">
<path id="T" d="M7.4 15V14.4939L9.89796 14.2653H10.4367L12.9837 14.4939V15H7.4ZM9.16327 15C9.21224 13.1714 9.21224 12.3102 9.21224 10.4163V9.6C9.21224 7.72245 9.21224 5.86122 9.16327 4H11.2041C11.1551 5.82857 11.1551 7.70612 11.1551 9.6V10.4163C11.1551 12.2776 11.1551 13.1551 11.2041 15H9.16327ZM4 7.26531L4.09796 4H16.2694L16.3837 7.26531H15.5837L14.8327 4L15.7469 4.60408H4.62041L5.55102 4L4.8 7.26531H4Z" fill="#2E3F57"/>
</g>
</svg>
