<svg width="16" height="16" viewBox="0 0 16 16" fill="none" xmlns="http://www.w3.org/2000/svg">
<path fill-rule="evenodd" clip-rule="evenodd" d="M6.03002 9.35008L6.50002 7.14008C6.57002 6.83008 6.72002 6.55008 6.95002 6.33008L11.26 2.05008C11.69 1.60008 12.29 1.34008 12.91 1.33008C13.38 1.33008 13.83 1.51008 14.17 1.84008C14.9 2.71008 14.81 4.01008 13.96 4.76008L9.65002 9.08008C9.43002 9.30008 9.15002 9.46008 8.84002 9.53008L6.64002 10.0001H6.52002C6.36002 10.0001 6.20002 9.93008 6.11002 9.80008C6.01002 9.67008 5.99002 9.50008 6.04002 9.35008H6.03002Z" fill="#2E3F57"/>
<path d="M10.36 9.78C10 10.14 9.55 10.39 9.05 10.5L6.85 10.97L6.75 10.99H6.56H6.52H6.5C6.03 10.99 5.59 10.77 5.31 10.39C5.03 10.02 4.94 9.54 5.07 9.09L5.54 6.91C5.65 6.42 5.9 5.97 6.26 5.61L9.89 2H5C3.34 2 2 3.34 2 5V11C2 12.66 3.34 14 5 14H11C12.66 14 14 12.66 14 11V6.13L10.36 9.78Z" fill="#2E3F57"/>
</svg>
