<svg width="18" height="16" viewBox="0 0 18 16" fill="none" xmlns="http://www.w3.org/2000/svg">
<path id="Icon" d="M2.55554 11.8889L2.55554 11.7333C2.55554 10.4265 2.55554 9.77315 2.80986 9.27402C3.03356 8.83498 3.39052 8.47802 3.82956 8.25432C4.32869 8 4.98208 8 6.28887 8L11.2667 8C12.5734 8 13.2268 8 13.726 8.25432C14.165 8.47802 14.522 8.83498 14.7457 9.27402C15 9.77315 15 10.4265 15 11.7333L15 11.8889M2.55554 11.8889C1.69643 11.8889 0.999986 12.5853 0.999986 13.4444C0.999986 14.3036 1.69643 15 2.55554 15C3.41465 15 4.1111 14.3036 4.1111 13.4444C4.1111 12.5853 3.41465 11.8889 2.55554 11.8889ZM15 11.8889C14.1409 11.8889 13.4444 12.5853 13.4444 13.4444C13.4444 14.3036 14.1409 15 15 15C15.8591 15 16.5555 14.3036 16.5555 13.4444C16.5555 12.5853 15.8591 11.8889 15 11.8889ZM8.77776 4.11111L8.77776 11.8889M8.77776 4.11111C7.91865 4.11111 7.22221 3.41466 7.22221 2.55556C7.22221 1.69645 7.91865 1 8.77776 1C9.63687 1 10.3333 1.69645 10.3333 2.55556C10.3333 3.41467 9.63687 4.11111 8.77776 4.11111ZM8.77776 11.8889C7.91865 11.8889 7.22221 12.5853 7.22221 13.4444C7.22221 14.3036 7.91865 15 8.77776 15C9.63687 15 10.3333 14.3036 10.3333 13.4444C10.3333 12.5853 9.63687 11.8889 8.77776 11.8889Z" stroke="#FFFFFF" stroke-width="1.5" stroke-linecap="round" stroke-linejoin="round"/>
</svg>
