<svg width="16" height="16" viewBox="0 0 16 16" fill="none" xmlns="http://www.w3.org/2000/svg">
<path fill-rule="evenodd" clip-rule="evenodd" d="M12.75 4.33333C12.75 3.73503 12.265 3.25 11.6667 3.25L4.33333 3.25C3.73502 3.25 3.25 3.73502 3.25 4.33333L3.25 11.6667C3.25 12.265 3.73502 12.75 4.33333 12.75L5.88889 12.75C6.3031 12.75 6.63889 13.0858 6.63889 13.5C6.63889 13.9142 6.3031 14.25 5.88889 14.25L4.33333 14.25C2.9066 14.25 1.75 13.0934 1.75 11.6667L1.75 4.33333C1.75 2.9066 2.9066 1.75 4.33333 1.75L11.6667 1.75C13.0934 1.75 14.25 2.9066 14.25 4.33333L14.25 5.88889C14.25 6.3031 13.9142 6.63889 13.5 6.63889C13.0858 6.63889 12.75 6.3031 12.75 5.88889L12.75 4.33333Z" fill="#2E3F57"/>
<path d="M11.2999 8.48992C11.3699 8.57992 11.4399 8.65992 11.5199 8.73992C11.9099 9.12992 12.4299 9.33992 12.9999 9.33992C13.1099 9.33992 13.2099 9.33992 13.3099 9.31992C13.2499 9.68992 13.2999 10.0799 13.4499 10.4399C13.5999 10.7999 13.8399 11.0999 14.1499 11.3299C13.8499 11.5499 13.5999 11.8599 13.4499 12.2199C13.2999 12.5799 13.2599 12.9699 13.3199 13.3499C13.2099 13.3299 13.0999 13.3199 12.9899 13.3199C12.4399 13.3199 11.9199 13.5299 11.5199 13.9199C11.4399 13.9999 11.3699 14.0799 11.2999 14.1699C11.2299 14.0799 11.1599 13.9999 11.0799 13.9199C10.6899 13.5299 10.1599 13.3199 9.59992 13.3199C9.48992 13.3199 9.38992 13.3199 9.28992 13.3399C9.34992 12.9699 9.29992 12.5799 9.14992 12.2199C8.99992 11.8599 8.75992 11.5599 8.44992 11.3299C8.74992 11.1099 8.99992 10.7999 9.14992 10.4399C9.29992 10.0799 9.33992 9.68992 9.28992 9.30992C9.39992 9.32992 9.50992 9.33992 9.61992 9.33992C10.1699 9.33992 10.6899 9.12992 11.0899 8.73992C11.1699 8.65992 11.2399 8.57992 11.3099 8.48992M11.8099 6.66992H10.7999C10.6499 6.66992 10.4999 6.72992 10.3899 6.83992C10.2799 6.94992 10.2199 7.09992 10.2199 7.25992C10.2199 7.41992 10.1599 7.56992 10.0399 7.67992C9.92992 7.78992 9.77992 7.84992 9.62992 7.84992C9.47992 7.84992 9.32992 7.78992 9.21992 7.67992C9.10992 7.56992 8.95992 7.49992 8.79992 7.49992C8.63992 7.49992 8.48992 7.55992 8.37992 7.67992L7.66992 8.38992C7.55992 8.49992 7.49992 8.64992 7.49992 8.80992C7.49992 8.96992 7.55992 9.11992 7.66992 9.22992C7.82992 9.39992 7.87992 9.64992 7.78992 9.86992C7.69992 10.0899 7.48992 10.2299 7.24992 10.2399C7.09992 10.2399 6.94992 10.2999 6.83992 10.4099C6.72992 10.5199 6.66992 10.6699 6.66992 10.8299V11.8399C6.66992 11.9999 6.72992 12.1499 6.83992 12.2599C6.94992 12.3699 7.09992 12.4299 7.24992 12.4299C7.48992 12.4299 7.69992 12.5799 7.78992 12.7999C7.87992 13.0199 7.82992 13.2699 7.66992 13.4399C7.55992 13.5499 7.49992 13.6999 7.49992 13.8599C7.49992 14.0199 7.55992 14.1699 7.66992 14.2799L8.37992 14.9899C8.48992 15.0999 8.63992 15.1699 8.79992 15.1699C8.95992 15.1699 9.10992 15.1099 9.21992 14.9899C9.32992 14.8799 9.47992 14.8199 9.62992 14.8199C9.78992 14.8199 9.92992 14.8799 10.0399 14.9899C10.1499 15.0999 10.2199 15.2499 10.2199 15.4099C10.2199 15.5699 10.2799 15.7199 10.3899 15.8299C10.4999 15.9399 10.6499 15.9999 10.7999 15.9999H11.8099C11.9599 15.9999 12.1099 15.9399 12.2199 15.8299C12.3299 15.7199 12.3899 15.5699 12.3899 15.4099C12.3899 15.2499 12.4499 15.0999 12.5699 14.9899C12.6799 14.8799 12.8299 14.8199 12.9799 14.8199C13.1299 14.8199 13.2799 14.8799 13.3899 14.9899C13.4999 15.0999 13.6499 15.1699 13.8099 15.1699C13.9699 15.1699 14.1199 15.1099 14.2299 14.9899L14.9399 14.2799C15.0499 14.1699 15.1099 14.0199 15.1099 13.8599C15.1099 13.6999 15.0499 13.5499 14.9399 13.4399C14.7799 13.2699 14.7299 13.0199 14.8199 12.7999C14.9099 12.5799 15.1199 12.4399 15.3599 12.4299C15.5099 12.4299 15.6599 12.3699 15.7699 12.2599C15.8799 12.1499 15.9399 11.9999 15.9399 11.8399V10.8299C15.9399 10.6699 15.8799 10.5199 15.7699 10.4099C15.6599 10.2999 15.5099 10.2399 15.3599 10.2399C15.1199 10.2399 14.9099 10.0899 14.8199 9.86992C14.7299 9.64992 14.7799 9.39992 14.9399 9.22992C15.0499 9.11992 15.1099 8.96992 15.1099 8.80992C15.1099 8.64992 15.0499 8.49992 14.9399 8.38992L14.2299 7.67992C14.1199 7.56992 13.9699 7.49992 13.8099 7.49992C13.6499 7.49992 13.4999 7.55992 13.3899 7.67992C13.2799 7.78992 13.1299 7.84992 12.9799 7.84992C12.8199 7.84992 12.6799 7.78992 12.5699 7.67992C12.4599 7.56992 12.3899 7.41992 12.3899 7.25992C12.3899 7.09992 12.3299 6.94992 12.2199 6.83992C12.1099 6.72992 11.9599 6.66992 11.8099 6.66992Z" fill="#2E3F57"/>
<path d="M11.2998 12.3301C11.8521 12.3301 12.2998 11.8824 12.2998 11.3301C12.2998 10.7778 11.8521 10.3301 11.2998 10.3301C10.7475 10.3301 10.2998 10.7778 10.2998 11.3301C10.2998 11.8824 10.7475 12.3301 11.2998 12.3301Z" fill="#2E3F57"/>
</svg>
