<svg width="16" height="16" viewBox="0 0 16 16" fill="none" xmlns="http://www.w3.org/2000/svg">
<path d="M2.6665 11.3333L2.6665 11.2C2.6665 10.0799 2.6665 9.51984 2.88449 9.09202C3.07624 8.71569 3.3822 8.40973 3.75852 8.21799C4.18635 8 4.7464 8 5.8665 8L10.1332 8C11.2533 8 11.8133 8 12.2412 8.21799C12.6175 8.40973 12.9234 8.71569 13.1152 9.09202C13.3332 9.51984 13.3332 10.0799 13.3332 11.2L13.3332 11.3333M2.6665 11.3333C1.93012 11.3333 1.33317 11.9303 1.33317 12.6667C1.33317 13.403 1.93012 14 2.6665 14C3.40288 14 3.99984 13.403 3.99984 12.6667C3.99984 11.9303 3.40288 11.3333 2.6665 11.3333ZM13.3332 11.3333C12.5968 11.3333 11.9998 11.9303 11.9998 12.6667C11.9998 13.403 12.5968 14 13.3332 14C14.0695 14 14.6665 13.403 14.6665 12.6667C14.6665 11.9303 14.0695 11.3333 13.3332 11.3333ZM7.99984 4.66667L7.99984 11.3333M7.99984 4.66667C7.26346 4.66667 6.6665 4.06971 6.6665 3.33333C6.6665 2.59695 7.26346 2 7.99984 2C8.73622 2 9.33317 2.59695 9.33317 3.33333C9.33317 4.06971 8.73622 4.66667 7.99984 4.66667ZM7.99984 11.3333C7.26346 11.3333 6.6665 11.9303 6.6665 12.6667C6.6665 13.403 7.26346 14 7.99984 14C8.73622 14 9.33317 13.403 9.33317 12.6667C9.33317 11.9303 8.73622 11.3333 7.99984 11.3333Z" stroke="#2E3F57" stroke-width="1.3" stroke-linecap="round" stroke-linejoin="round"/>
</svg>
