<svg width="16" height="16" viewBox="0 0 16 16" fill="none" xmlns="http://www.w3.org/2000/svg">
<path d="M14.1149 6.35634C13.7583 6.35051 13.4391 6.13392 13.302 5.80474C13.1648 5.47556 13.2358 5.0964 13.4827 4.83911C13.649 4.67309 13.7425 4.44771 13.7425 4.21268C13.7425 3.97766 13.649 3.75228 13.4827 3.58625L12.4137 2.5173C12.2493 2.34807 12.0233 2.25258 11.7873 2.25258C11.5513 2.25258 11.3254 2.34807 11.1609 2.5173C10.9945 2.67866 10.772 2.76929 10.5402 2.77017C10.3035 2.77325 10.0754 2.68136 9.90693 2.51505C9.73846 2.34873 9.64364 2.12186 9.64366 1.88512C9.64678 1.64945 9.55454 1.42252 9.38788 1.25586C9.22122 1.0892 8.99429 0.996955 8.75861 1.00008H7.24139C7.00571 0.996955 6.77878 1.0892 6.61212 1.25586C6.44546 1.42252 6.35322 1.64945 6.35634 1.88512C6.35636 2.12186 6.26154 2.34873 6.09307 2.51505C5.92459 2.68136 5.69651 2.77325 5.4598 2.77017C5.22799 2.76929 5.00554 2.67866 4.83912 2.5173C4.67463 2.34807 4.44868 2.25258 4.21269 2.25258C3.97669 2.25258 3.75074 2.34807 3.58626 2.5173L2.5173 3.58625C2.35095 3.75228 2.25747 3.97766 2.25747 4.21268C2.25747 4.44771 2.35095 4.67309 2.5173 4.83911C2.76423 5.0964 2.8352 5.47556 2.69805 5.80474C2.56089 6.13392 2.24168 6.35051 1.88512 6.35634C1.64945 6.35322 1.42252 6.44546 1.25586 6.61212C1.0892 6.77878 0.996955 7.00571 1.00008 7.24139V8.75861C0.996955 8.99428 1.0892 9.22122 1.25586 9.38788C1.42252 9.55454 1.64945 9.64678 1.88512 9.64366C2.24168 9.64949 2.56089 9.86608 2.69805 10.1953C2.8352 10.5244 2.76423 10.9036 2.5173 11.1609C2.35095 11.3269 2.25747 11.5523 2.25747 11.7873C2.25747 12.0223 2.35095 12.2477 2.5173 12.4137L3.58626 13.4827C3.75074 13.6519 3.97669 13.7474 4.21269 13.7474C4.44868 13.7474 4.67463 13.6519 4.83912 13.4827C5.00554 13.3213 5.22799 13.2307 5.4598 13.2298C5.69651 13.2268 5.92459 13.3186 6.09307 13.485C6.26154 13.6513 6.35636 13.8781 6.35634 14.1149C6.35322 14.3505 6.44546 14.5775 6.61212 14.7441C6.77878 14.9108 7.00571 15.003 7.24139 14.9999H8.75861C8.99429 15.003 9.22122 14.9108 9.38788 14.7441C9.55454 14.5775 9.64678 14.3505 9.64366 14.1149C9.64364 13.8781 9.73846 13.6513 9.90693 13.485C10.0754 13.3186 10.3035 13.2268 10.5402 13.2298C10.772 13.2307 10.9945 13.3213 11.1609 13.4827C11.3254 13.6519 11.5513 13.7474 11.7873 13.7474C12.0233 13.7474 12.2493 13.6519 12.4137 13.4827L13.4827 12.4137C13.649 12.2477 13.7425 12.0223 13.7425 11.7873C13.7425 11.5523 13.649 11.3269 13.4827 11.1609C13.2358 10.9036 13.1648 10.5244 13.302 10.1953C13.4391 9.86608 13.7583 9.64949 14.1149 9.64366C14.3505 9.64678 14.5775 9.55454 14.7441 9.38788C14.9108 9.22122 15.003 8.99428 14.9999 8.75861V7.24139C15.003 7.00571 14.9108 6.77878 14.7441 6.61212C14.5775 6.44546 14.3505 6.35322 14.1149 6.35634Z" fill="#2E3F57"/>
<circle cx="8.00015" cy="8.00015" r="1.61538" fill="white"/>
</svg>
