<svg width="20" height="20" viewBox="0 0 20 20" fill="none" xmlns="http://www.w3.org/2000/svg">
<g id="Icon / Outlined / Search" clip-path="url(#clip0_369_18449)">
<path id="Vector" fill-rule="evenodd" clip-rule="evenodd" d="M14.4413 15.6188C13.0047 16.7944 11.1684 17.4997 9.16732 17.4997C4.56494 17.4997 0.833984 13.7687 0.833984 9.16634C0.833984 4.56397 4.56494 0.833008 9.16732 0.833008C13.7697 0.833008 17.5007 4.56397 17.5007 9.16634C17.5007 11.1674 16.7953 13.0037 15.6198 14.4403L18.9233 17.7438C19.2487 18.0693 19.2487 18.5969 18.9233 18.9223C18.5979 19.2478 18.0702 19.2478 17.7448 18.9223L14.4413 15.6188ZM15.834 9.16634C15.834 12.8482 12.8492 15.833 9.16732 15.833C5.48542 15.833 2.50065 12.8482 2.50065 9.16634C2.50065 5.48444 5.48542 2.49967 9.16732 2.49967C12.8492 2.49967 15.834 5.48444 15.834 9.16634Z" fill="#2E3F57"/>
</g>
<defs>
<clipPath id="clip0_369_18449">
<rect width="20" height="20" fill="white"/>
</clipPath>
</defs>
</svg>
