<svg width="32" height="32" viewBox="0 0 32 32" fill="none" xmlns="http://www.w3.org/2000/svg">
<g id="Icon / Filled / Warning">
<circle id="Ellipse 2" cx="15.9987" cy="15.9997" r="14.6667" fill="#B1B9CB"/>
<g id="Shape">
<path d="M15.7581 8.07967C15.9904 7.97733 16.2416 7.92459 16.4955 7.92481C16.7493 7.92487 17.0002 7.97782 17.2324 8.08027C17.4645 8.18273 17.6728 8.33245 17.8438 8.51988C18.0149 8.70731 18.145 8.92833 18.2259 9.16885C18.3067 9.40937 18.3366 9.6641 18.3135 9.91681L17.5855 17.9288C17.5572 18.1982 17.4302 18.4475 17.2289 18.6288C17.0276 18.81 16.7664 18.9103 16.4955 18.9103C16.2247 18.9103 15.9634 18.81 15.7621 18.6288C15.5609 18.4475 15.4338 18.1982 15.4055 17.9288L14.6755 9.91681C14.6524 9.66394 14.6824 9.40903 14.7633 9.16838C14.8443 8.92772 14.9746 8.7066 15.1459 8.51914C15.3172 8.33168 15.5257 8.182 15.7581 8.07967Z" fill="white"/>
<path d="M18.2403 22.3298C18.2403 23.2934 17.4591 24.0745 16.4956 24.0745C15.5321 24.0745 14.751 23.2934 14.751 22.3298C14.751 21.3663 15.5321 20.5852 16.4956 20.5852C17.4591 20.5852 18.2403 21.3663 18.2403 22.3298Z" fill="white"/>
</g>
</g>
</svg>
