<svg width="16" height="16" viewBox="0 0 16 16" fill="none" xmlns="http://www.w3.org/2000/svg">
<g id="Icon / Filled / Delete" clip-path="url(#clip0_1601_490)">
<circle id="Ellipse 2" cx="8.0013" cy="8.0013" r="7.33333" fill="#B1B9CB"/>
<path id="Shape" d="M6.21811 5.20899C5.93945 4.93034 5.48765 4.93034 5.20899 5.20899C4.93034 5.48765 4.93034 5.93945 5.20899 6.21811L6.98574 7.99486L5.20899 9.77161C4.93034 10.0503 4.93034 10.5021 5.20899 10.7807C5.48765 11.0594 5.93945 11.0594 6.21811 10.7807L7.99486 9.00397L9.77161 10.7807C10.0503 11.0594 10.5021 11.0594 10.7807 10.7807C11.0594 10.5021 11.0594 10.0503 10.7807 9.77161L9.00397 7.99486L10.7807 6.21811C11.0594 5.93945 11.0594 5.48765 10.7807 5.20899C10.5021 4.93034 10.0503 4.93034 9.77161 5.20899L7.99486 6.98574L6.21811 5.20899Z" fill="white"/>
</g>
<defs>
<clipPath id="clip0_1601_490">
<rect width="16" height="16" fill="white"/>
</clipPath>
</defs>
</svg>
