<svg width="16" height="16" viewBox="0 0 16 16" fill="none" xmlns="http://www.w3.org/2000/svg">
<g id="Icon / line / fillter">
<path id="Vector" d="M14.6641 4.33301H10.6641" stroke="#2E3F57" stroke-width="1.5" stroke-miterlimit="10" stroke-linecap="round" stroke-linejoin="round"/>
<path id="Vector_2" d="M4.0026 4.33301H1.33594" stroke="#2E3F57" stroke-width="1.5" stroke-miterlimit="10" stroke-linecap="round" stroke-linejoin="round"/>
<path id="Vector_3" d="M6.66927 6.66667C7.95794 6.66667 9.0026 5.622 9.0026 4.33333C9.0026 3.04467 7.95794 2 6.66927 2C5.38061 2 4.33594 3.04467 4.33594 4.33333C4.33594 5.622 5.38061 6.66667 6.66927 6.66667Z" stroke="#2E3F57" stroke-width="1.5" stroke-miterlimit="10" stroke-linecap="round" stroke-linejoin="round"/>
<path id="Vector_4" d="M14.6667 11.667H12" stroke="#2E3F57" stroke-width="1.5" stroke-miterlimit="10" stroke-linecap="round" stroke-linejoin="round"/>
<path id="Vector_5" d="M5.33594 11.667H1.33594" stroke="#2E3F57" stroke-width="1.5" stroke-miterlimit="10" stroke-linecap="round" stroke-linejoin="round"/>
<path id="Vector_6" d="M9.33333 13.9997C10.622 13.9997 11.6667 12.955 11.6667 11.6663C11.6667 10.3777 10.622 9.33301 9.33333 9.33301C8.04467 9.33301 7 10.3777 7 11.6663C7 12.955 8.04467 13.9997 9.33333 13.9997Z" stroke="#2E3F57" stroke-width="1.5" stroke-miterlimit="10" stroke-linecap="round" stroke-linejoin="round"/>
</g>
</svg>
