<svg width="16" height="16" viewBox="0 0 16 16" fill="none" xmlns="http://www.w3.org/2000/svg">
<path fill-rule="evenodd" clip-rule="evenodd" d="M4.54098 1.5C4.81713 1.5 5.04098 1.72386 5.04098 2V2.52857H10.8346V2C10.8346 1.72386 11.0585 1.5 11.3346 1.5C11.6108 1.5 11.8346 1.72386 11.8346 2V2.57948C12.984 2.81728 13.8346 3.85895 13.8346 5.0857L13.8346 11.9429C13.8346 13.3418 12.7285 14.5 11.3346 14.5H4.66797C3.27408 14.5 2.16797 13.3418 2.16797 11.9429V5.0857C2.16797 3.90458 2.95649 2.89502 4.04098 2.60932V2C4.04098 1.72386 4.26484 1.5 4.54098 1.5ZM4.66797 3.52857C3.85272 3.52857 3.16797 4.21235 3.16797 5.0857V5.47129C3.2201 5.45286 3.2762 5.44284 3.33464 5.44284H12.668C12.7264 5.44284 12.7825 5.45286 12.8346 5.47129V5.0857C12.8346 4.21235 12.1499 3.52857 11.3346 3.52857H4.66797ZM12.8346 6.41439C12.7825 6.43281 12.7264 6.44284 12.668 6.44284H3.33464C3.2762 6.44284 3.2201 6.43281 3.16797 6.41439V11.9429C3.16797 12.8162 3.85272 13.5 4.66797 13.5H11.3346C12.1499 13.5 12.8346 12.8162 12.8346 11.9429L12.8346 6.41439ZM8.33464 8.13415C8.61078 8.13415 8.83464 8.35801 8.83464 8.63415V8.68571C8.83464 8.96185 8.61078 9.18571 8.33464 9.18571C8.05849 9.18571 7.83464 8.96185 7.83464 8.68571V8.63415C7.83464 8.35801 8.05849 8.13415 8.33464 8.13415ZM11.0013 8.13415C11.2774 8.13415 11.5013 8.35801 11.5013 8.63415V8.68571C11.5013 8.96185 11.2774 9.18571 11.0013 9.18571C10.7252 9.18571 10.5013 8.96185 10.5013 8.68571V8.63415C10.5013 8.35801 10.7252 8.13415 11.0013 8.13415ZM5.33464 10.9286C5.61078 10.9286 5.83464 11.1524 5.83464 11.4286V11.4801C5.83464 11.7563 5.61078 11.9801 5.33464 11.9801C5.05849 11.9801 4.83464 11.7563 4.83464 11.4801V11.4286C4.83464 11.1524 5.05849 10.9286 5.33464 10.9286ZM8.33464 10.9286C8.61078 10.9286 8.83464 11.1524 8.83464 11.4286V11.4801C8.83464 11.7563 8.61078 11.9801 8.33464 11.9801C8.05849 11.9801 7.83464 11.7563 7.83464 11.4801V11.4286C7.83464 11.1524 8.05849 10.9286 8.33464 10.9286Z" fill="#2E3F57"/>
</svg>
