<svg width="16" height="16" viewBox="0 0 16 16" fill="none" xmlns="http://www.w3.org/2000/svg">
<g id="Icon / Outlined / Calendar">
<path id="Icon (Stroke)" fill-rule="evenodd" clip-rule="evenodd" d="M4.53903 1.5C4.81517 1.5 5.03903 1.72386 5.03903 2V2.52857H10.8327V2C10.8327 1.72386 11.0565 1.5 11.3327 1.5C11.6088 1.5 11.8327 1.72386 11.8327 2V2.57948C12.9821 2.81728 13.8327 3.85895 13.8327 5.0857L13.8327 11.9429C13.8327 13.3418 12.7266 14.5 11.3327 14.5H4.66602C3.27212 14.5 2.16602 13.3418 2.16602 11.9429V5.0857C2.16602 3.90458 2.95454 2.89502 4.03903 2.60932V2C4.03903 1.72386 4.26289 1.5 4.53903 1.5ZM4.66602 3.52857C3.85077 3.52857 3.16602 4.21235 3.16602 5.0857V5.47129C3.21815 5.45286 3.27424 5.44284 3.33268 5.44284H12.666C12.7245 5.44284 12.7806 5.45286 12.8327 5.47129V5.0857C12.8327 4.21235 12.1479 3.52857 11.3327 3.52857H4.66602ZM12.8327 6.41439C12.7806 6.43281 12.7245 6.44284 12.666 6.44284H3.33268C3.27424 6.44284 3.21815 6.43281 3.16602 6.41439V11.9429C3.16602 12.8162 3.85077 13.5 4.66602 13.5H11.3327C12.1479 13.5 12.8327 12.8162 12.8327 11.9429L12.8327 6.41439ZM8.33268 8.13415C8.60882 8.13415 8.83268 8.35801 8.83268 8.63415V8.68571C8.83268 8.96185 8.60882 9.18571 8.33268 9.18571C8.05654 9.18571 7.83268 8.96185 7.83268 8.68571V8.63415C7.83268 8.35801 8.05654 8.13415 8.33268 8.13415ZM10.9993 8.13415C11.2755 8.13415 11.4993 8.35801 11.4993 8.63415V8.68571C11.4993 8.96185 11.2755 9.18571 10.9993 9.18571C10.7232 9.18571 10.4993 8.96185 10.4993 8.68571V8.63415C10.4993 8.35801 10.7232 8.13415 10.9993 8.13415ZM5.33268 10.9286C5.60882 10.9286 5.83268 11.1524 5.83268 11.4286V11.4801C5.83268 11.7563 5.60882 11.9801 5.33268 11.9801C5.05654 11.9801 4.83268 11.7563 4.83268 11.4801V11.4286C4.83268 11.1524 5.05654 10.9286 5.33268 10.9286ZM8.33268 10.9286C8.60882 10.9286 8.83268 11.1524 8.83268 11.4286V11.4801C8.83268 11.7563 8.60882 11.9801 8.33268 11.9801C8.05654 11.9801 7.83268 11.7563 7.83268 11.4801V11.4286C7.83268 11.1524 8.05654 10.9286 8.33268 10.9286Z" fill="#2E3F57"/>
</g>
</svg>
