<svg width="20" height="20" viewBox="0 0 20 20" fill="none" xmlns="http://www.w3.org/2000/svg">
<g id="Icon / Outlined / Logout">
<path id="Icon (Stroke)" fill-rule="evenodd" clip-rule="evenodd" d="M2.57678 3.40227C3.02533 2.95746 3.6326 2.7085 4.26471 2.7085H7.35294C7.69812 2.7085 7.97794 2.98832 7.97794 3.3335C7.97794 3.67867 7.69812 3.9585 7.35294 3.9585H4.26471C3.96076 3.9585 3.6703 4.07828 3.45696 4.28985C3.24379 4.50123 3.125 4.78682 3.125 5.0835V15.5835C3.125 15.8802 3.24379 16.1658 3.45696 16.3771C3.6703 16.5887 3.96076 16.7085 4.26471 16.7085H7.35294C7.69812 16.7085 7.97794 16.9883 7.97794 17.3335C7.97794 17.6787 7.69812 17.9585 7.35294 17.9585H4.26471C3.6326 17.9585 3.02533 17.7095 2.57678 17.2647C2.12805 16.8197 1.875 16.2151 1.875 15.5835V5.0835C1.875 4.45191 2.12805 3.84726 2.57678 3.40227ZM13.3196 5.88156C13.5692 5.64313 13.9648 5.65218 14.2032 5.90178L18.0242 9.90178C18.255 10.1433 18.255 10.5236 18.0242 10.7652L14.2032 14.7652C13.9648 15.0148 13.5692 15.0239 13.3196 14.7854C13.07 14.547 13.0609 14.1514 13.2994 13.9018L16.1109 10.9585H7.57227C7.22709 10.9585 6.94727 10.6787 6.94727 10.3335C6.94727 9.98832 7.22709 9.7085 7.57227 9.7085H16.1109L13.2994 6.76521C13.0609 6.51561 13.07 6.11998 13.3196 5.88156Z" fill="#2E3F57"/>
</g>
</svg>
